<svg height="480pt" viewBox="0 0 480 480" width="480pt" xmlns="http://www.w3.org/2000/svg"><path d="m240 0c-132.546875 0-240 107.453125-240 240s107.453125 240 240 240 240-107.453125 240-240c-.148438-132.484375-107.515625-239.851562-240-240zm0 464c-123.710938 0-224-100.289062-224-224s100.289062-224 224-224 224 100.289062 224 224c-.140625 123.652344-100.347656 223.859375-224 224zm0 0"/><path d="m336 136h-144c-4.417969 0-8 3.582031-8 8v40h-40c-4.417969 0-8 3.582031-8 8v144c0 4.417969 3.582031 8 8 8h144c4.417969 0 8-3.582031 8-8v-40h40c4.417969 0 8-3.582031 8-8v-144c0-4.417969-3.582031-8-8-8zm-56 192h-128v-128h128zm48-48h-32v-88c0-4.417969-3.582031-8-8-8h-88v-32h128zm0 0"/></svg>