<svg width="16px" height="10px" viewBox="0 0 16 10" version="1.1" xmlns="http://www.w3.org/2000/svg" xmlns:xlink="http://www.w3.org/1999/xlink">
    <!-- Generator: Sketch 50.2 (55047) - http://www.bohemiancoding.com/sketch -->
    <desc>Created with Sketch.</desc>
    <defs></defs>
    <g id="Symbols" stroke="none" stroke-width="1" fill="none" fill-rule="evenodd">
        <g id="ToolbarPopup/shareablelink" transform="translate(-47.000000, -176.000000)" fill="#C9D0D8" fill-rule="nonzero">
            <g id="Group-5">
                <g id="Group" transform="translate(30.000000, 138.000000)">
                    <g id="Group-49" transform="translate(0.000000, 17.000000)">
                        <g id="ic_link_black_24px-(1)" transform="translate(15.000000, 16.000000)">
                            <path d="M3.49107143,10 C3.49107143,8.62589286 4.60803571,7.50892857 5.98214286,7.50892857 L9.19642857,7.50892857 L9.19642857,5.98214286 L5.98214286,5.98214286 C3.76428571,5.98214286 1.96428571,7.78214286 1.96428571,10 C1.96428571,12.2178571 3.76428571,14.0178571 5.98214286,14.0178571 L9.19642857,14.0178571 L9.19642857,12.4910714 L5.98214286,12.4910714 C4.60803571,12.4910714 3.49107143,11.3741071 3.49107143,10 Z M6.78571429,10.8035714 L13.2142857,10.8035714 L13.2142857,9.19642857 L6.78571429,9.19642857 L6.78571429,10.8035714 Z M14.0178571,5.98214286 L10.8035714,5.98214286 L10.8035714,7.50892857 L14.0178571,7.50892857 C15.3919643,7.50892857 16.5089286,8.62589286 16.5089286,10 C16.5089286,11.3741071 15.3919643,12.4910714 14.0178571,12.4910714 L10.8035714,12.4910714 L10.8035714,14.0178571 L14.0178571,14.0178571 C16.2357143,14.0178571 18.0357143,12.2178571 18.0357143,10 C18.0357143,7.78214286 16.2357143,5.98214286 14.0178571,5.98214286 Z" id="Shape"></path>
                        </g>
                    </g>
                </g>
            </g>
        </g>
    </g>
</svg>
