<svg width="28px" height="28px" viewBox="0 0 28 28" version="1.1" xmlns="http://www.w3.org/2000/svg" xmlns:xlink="http://www.w3.org/1999/xlink">
    <!-- Generator: Sketch 50.2 (55047) - http://www.bohemiancoding.com/sketch -->
    <desc>Created with Sketch.</desc>
    <defs></defs>
    <g id="Symbols" stroke="none" stroke-width="1" fill="none" fill-rule="evenodd">
        <g id="ToolbarPopup/edit-button" transform="translate(-322.000000, -35.000000)" fill="#5163BA">
            <g id="Group-36">
                <g id="Group-27">
                    <g id="Group-28" transform="translate(25.000000, 25.000000)">
                        <g id="Group-18" transform="translate(297.000000, 10.000000)">
                            <g id="logo">
                                <g id="Group-3">
                                    <path d="M8.74168214,-3.53174421e-16 L14,0 L11.2,2.8 L8.9191775,2.8 C6.79140617,2.8 6.01982487,3.02154517 5.24194348,3.4375607 C4.46406209,3.85357622 3.85357622,4.46406209 3.4375607,5.24194348 C3.02154517,6.01982487 2.8,6.79140617 2.8,8.9191775 L2.8,14 L0,11.2 L2.35449614e-16,8.74168214 C-1.36803006e-16,5.70200882 0.316493105,4.59974982 0.910800993,3.48849069 C1.50510888,2.37723155 2.37723155,1.50510888 3.48849069,0.910800993 C4.59974982,0.316493105 5.70200882,2.0520451e-16 8.74168214,-3.53174421e-16 Z" id="Rectangle-4"></path>
                                    <path d="M8.57084107,4.2 L9.8,4.2 L7.8962875,6.1037125 C7.52277722,6.47722278 7.40709744,6.61995095 7.29689976,6.79615779 C7.18670208,6.97236462 7.11247714,7.15155948 7.06580162,7.35407805 C7.0191261,7.55659662 7,7.73931863 7,8.26754194 L7,18.2 L4.2,15.4 L4.2,8.57084107 C4.2,7.05100441 4.35824655,6.49987491 4.6554005,5.94424534 C4.95255444,5.38861578 5.38861578,4.95255444 5.94424534,4.6554005 C6.49987491,4.35824655 7.05100441,4.2 8.57084107,4.2 Z" id="Path"></path>
                                </g>
                                <g id="Group-3" transform="translate(18.500000, 7.000000) rotate(90.000000) translate(-18.500000, -7.000000) translate(11.500000, -2.500000)">
                                    <path d="M8.74168214,-6.30730178e-16 L14,-2.77555756e-16 L11.2,2.8 L8.9191775,2.8 C6.79140617,2.8 6.01982487,3.02154517 5.24194348,3.4375607 C4.46406209,3.85357622 3.85357622,4.46406209 3.4375607,5.24194348 C3.02154517,6.01982487 2.8,6.79140617 2.8,8.9191775 L2.8,14 L-4.4408921e-15,11.2 L-4.20544248e-15,8.74168214 C-4.5776951e-15,5.70200882 0.316493105,4.59974982 0.910800993,3.48849069 C1.50510888,2.37723155 2.37723155,1.50510888 3.48849069,0.910800993 C4.59974982,0.316493105 5.70200882,-7.23512466e-17 8.74168214,-6.30730178e-16 Z" id="Rectangle-4"></path>
                                    <path d="M8.57084107,4.2 L9.8,4.2 L7.8962875,6.1037125 C7.52277722,6.47722278 7.40709744,6.61995095 7.29689976,6.79615779 C7.18670208,6.97236462 7.11247714,7.15155948 7.06580162,7.35407805 C7.0191261,7.55659662 7,7.73931863 7,8.26754194 L7,18.2 L4.2,15.4 L4.2,8.57084107 C4.2,7.05100441 4.35824655,6.49987491 4.6554005,5.94424534 C4.95255444,5.38861578 5.38861578,4.95255444 5.94424534,4.6554005 C6.49987491,4.35824655 7.05100441,4.2 8.57084107,4.2 Z" id="Path"></path>
                                </g>
                                <g id="Group-3" transform="translate(21.000000, 18.500000) rotate(180.000000) translate(-21.000000, -18.500000) translate(14.000000, 9.000000)">
                                    <path d="M8.74168214,2.57448242e-16 L14,-2.77555756e-16 L11.2,2.8 L8.9191775,2.8 C6.79140617,2.8 6.01982487,3.02154517 5.24194348,3.4375607 C4.46406209,3.85357622 3.85357622,4.46406209 3.4375607,5.24194348 C3.02154517,6.01982487 2.8,6.79140617 2.8,8.9191775 L2.8,14 L-3.55271368e-15,11.2 L-4.20544248e-15,8.74168214 C-4.5776951e-15,5.70200882 0.316493105,4.59974982 0.910800993,3.48849069 C1.50510888,2.37723155 2.37723155,1.50510888 3.48849069,0.910800993 C4.59974982,0.316493105 5.70200882,8.15827173e-16 8.74168214,2.57448242e-16 Z" id="Rectangle-4"></path>
                                    <path d="M8.57084107,4.2 L9.8,4.2 L7.8962875,6.1037125 C7.52277722,6.47722278 7.40709744,6.61995095 7.29689976,6.79615779 C7.18670208,6.97236462 7.11247714,7.15155948 7.06580162,7.35407805 C7.0191261,7.55659662 7,7.73931863 7,8.26754194 L7,18.2 L4.2,15.4 L4.2,8.57084107 C4.2,7.05100441 4.35824655,6.49987491 4.6554005,5.94424534 C4.95255444,5.38861578 5.38861578,4.95255444 5.94424534,4.6554005 C6.49987491,4.35824655 7.05100441,4.2 8.57084107,4.2 Z" id="Path"></path>
                                </g>
                                <g id="Group-3" transform="translate(9.500000, 21.000000) rotate(270.000000) translate(-9.500000, -21.000000) translate(2.500000, 11.500000)">
                                    <path d="M8.74168214,-3.01770968e-15 L14,-1.77635684e-15 L11.2,2.8 L8.9191775,2.8 C6.79140617,2.8 6.01982487,3.02154517 5.24194348,3.4375607 C4.46406209,3.85357622 3.85357622,4.46406209 3.4375607,5.24194348 C3.02154517,6.01982487 2.8,6.79140617 2.8,8.9191775 L2.8,14 L2.53007502e-15,11.2 L1.24427312e-16,8.74168214 C-2.47825309e-16,5.70200882 0.316493105,4.59974982 0.910800993,3.48849069 C1.50510888,2.37723155 2.37723155,1.50510888 3.48849069,0.910800993 C4.59974982,0.316493105 5.70200882,-2.45933075e-15 8.74168214,-3.01770968e-15 Z" id="Rectangle-4"></path>
                                    <path d="M8.57084107,4.2 L9.8,4.2 L7.8962875,6.1037125 C7.52277722,6.47722278 7.40709744,6.61995095 7.29689976,6.79615779 C7.18670208,6.97236462 7.11247714,7.15155948 7.06580162,7.35407805 C7.0191261,7.55659662 7,7.73931863 7,8.26754194 L7,18.2 L4.2,15.4 L4.2,8.57084107 C4.2,7.05100441 4.35824655,6.49987491 4.6554005,5.94424534 C4.95255444,5.38861578 5.38861578,4.95255444 5.94424534,4.6554005 C6.49987491,4.35824655 7.05100441,4.2 8.57084107,4.2 Z" id="Path"></path>
                                </g>
                            </g>
                        </g>
                    </g>
                </g>
            </g>
        </g>
    </g>
</svg>
